<?xml version="1.0" encoding="iso-8859-1"?>
<!-- Generator: Adobe Illustrator 19.0.0, SVG Export Plug-In . SVG Version: 6.00 Build 0)  -->
<svg version="1.1" id="Capa_1" xmlns="http://www.w3.org/2000/svg" xmlns:xlink="http://www.w3.org/1999/xlink" x="0px" y="0px"
	 viewBox="0 0 425.961 425.961" style="enable-background:new 0 0 425.961 425.961;" xml:space="preserve">
<g>
	<g>
		<path d="M409.097,307.475L202.084,150.258c-7.967-6.051-12.646-15.479-12.646-25.484v-18.815c0-11.847,9.604-21.45,21.45-21.45
			s21.45,9.604,21.45,21.45v21.052h42.667v-21.052c0-35.411-28.706-64.117-64.117-64.117c-35.411,0-64.117,28.706-64.117,64.117
			v18.815c0,23.344,10.917,45.344,29.508,59.462l207.014,157.217H42.667l124.022-96.318l-26.17-33.698L16.496,307.755
			C6.089,315.838,0,328.276,0,341.453c0,23.564,19.102,42.667,42.667,42.667h340.626c13.339,0,25.911-6.239,33.979-16.862
			C431.523,348.492,427.863,321.726,409.097,307.475z"/>
	</g>
</g>
<g>
</g>
<g>
</g>
<g>
</g>
<g>
</g>
<g>
</g>
<g>
</g>
<g>
</g>
<g>
</g>
<g>
</g>
<g>
</g>
<g>
</g>
<g>
</g>
<g>
</g>
<g>
</g>
<g>
</g>
</svg>
