<svg id="Layer_1" height="512" viewBox="0 0 512 512" width="512" xmlns="http://www.w3.org/2000/svg" data-name="Layer 1"><circle cx="256" cy="288" fill="#3c7bed" r="192"/><path d="m109.079 344c0-106.039 85.961-192 192-192a191.227 191.227 0 0 1 124.467 45.82 192.857 192.857 0 0 0 -82.11-80.8l-175.436.289a192.031 192.031 0 0 0 -36.442 316.891 191.138 191.138 0 0 1 -22.479-90.2z" fill="#fff" opacity=".3"/><path d="m324.964 108.771-56.364 156.329c47.187-25.2 86.621-87.991 107.573-126.833a191.761 191.761 0 0 0 -51.209-29.496z" fill="#1a5aa8" opacity=".2"/><path d="m184 264v35.18a24 24 0 0 1 -20.61 23.76l-94.98 6.16a192.524 192.524 0 0 1 26.18-145.1h17.41a24.006 24.006 0 0 1 24 24v8a24 24 0 0 0 24 24 24.006 24.006 0 0 1 24 24z" fill="#fed957"/><path d="m439.7 344a192.073 192.073 0 0 1 -183.7 136c-2.68 0-5.35-.05-8-.17v-79.83a31.991 31.991 0 0 1 32-32 32 32 0 0 0 32-32v-16a32 32 0 0 1 32-32h16a31.991 31.991 0 0 1 32 32 24.006 24.006 0 0 0 24 24z" fill="#fed957"/><path d="m340.571 117.714c0 35.333-47.75 114.894-71.971 147.387a17.139 17.139 0 0 1 -27.487 0c-24.221-32.493-71.971-112.054-71.971-147.387a85.714 85.714 0 0 1 171.429 0z" fill="#56e497"/><path d="m254.857 172.444a46.222 46.222 0 1 1 46.222-46.222 46.275 46.275 0 0 1 -46.222 46.222z" fill="#3c7bed"/><path d="m317.257 58.983a85.693 85.693 0 0 0 -148.114 58.731c0 14.932 8.528 37.763 20.2 61.6 62.109-28.584 102.329-76.021 127.914-120.331z" fill="#fff" opacity=".3"/></svg>