<svg id="Capa_1" enable-background="new 0 0 510 510" height="512" viewBox="0 0 510 510" width="512" xmlns="http://www.w3.org/2000/svg"><g><path d="m1.253 188.002 15.354 90.018 16.393 29.98-8.844 14.278 8.048 47.188c4.834 29.006 30.204 53.055 73.365 69.546 30.105 11.503 67.419 18.853 109.431 21.675l40-23.109 49-116.578-55-36z" fill="#fff5f5"/><path d="m508.747 188.002-253.747 110.998v138.578l1-.578 39 23.687c42.011-2.823 79.326-10.172 109.431-21.675 43.162-16.491 68.531-40.54 73.356-69.49l8.058-47.243-23.845-3.279 31.393-40.98z" fill="#ebebf0"/><path d="m162.777 373.638 5.631-29.467c-41.667-7.962-79.253-20.34-108.697-35.798-17.677-9.28-32.219-19.549-43.104-30.353l7.549 44.259c6.677 4.376 13.879 8.598 21.61 12.657 32.022 16.81 72.484 30.194 117.011 38.702z" fill="#cee9f8"/><path d="m450.29 308.373c-29.444 15.458-67.03 27.836-108.697 35.798l5.631 29.467c44.527-8.508 84.989-21.892 117.011-38.702 7.732-4.059 14.934-8.281 21.611-12.657l7.549-44.259c-10.886 10.803-25.428 21.073-43.105 30.353z" fill="#72bbff"/><path d="m255 63c-132.548 0-240 50.144-240 112s107.452 112 240 112l32-113z" fill="#ffdd46"/><path d="m495 175c0-61.856-107.452-112-240-112v224c132.548 0 240-50.144 240-112z" fill="#fcbe00"/><path d="m255 367c-22.091 0-40 17.909-40 40v53.687c12.915.868 26.269 1.313 40 1.313l12-45z" fill="#ff9e00"/><path d="m295 407c0-22.091-17.909-40-40-40v95c13.731 0 27.085-.445 40-1.313z" fill="#f67e00"/><path d="m418.362 240.604c39.172-18.281 61.638-42.193 61.638-65.604s-22.466-47.323-61.638-65.604c-43.385-20.246-101.401-31.396-163.362-31.396v194c61.961 0 119.977-11.15 163.362-31.396z" fill="none"/><path d="m91.638 109.396c-39.172 18.281-61.638 42.193-61.638 65.604s22.466 47.323 61.638 65.604c43.385 20.246 101.402 31.396 163.362 31.396v-194c-61.96 0-119.977 11.15-163.362 31.396z" fill="none"/><path d="m115 199v65l140 24.973 22-42.973-22-47z" fill="#00d28c"/><path d="m395 199h-140v89.973l140-23.973z" fill="#009696"/><path d="m0 175c0 36.076 28.039 69.029 78.951 92.788 47.275 22.063 109.797 34.212 176.049 34.212v-30c-61.96 0-119.977-11.15-163.362-31.396-39.172-18.281-61.638-42.193-61.638-65.604s22.466-47.323 61.638-65.604c43.385-20.246 101.402-31.396 163.362-31.396l28-11-28-19c-66.252 0-128.774 12.149-176.049 34.212-50.912 23.759-78.951 56.712-78.951 92.788" fill="#0081ff"/><path d="m431.049 82.212c-47.275-22.063-109.796-34.212-176.049-34.212v30c61.96 0 119.977 11.15 163.362 31.396 39.172 18.281 61.638 42.193 61.638 65.604s-22.466 47.323-61.638 65.604c-43.385 20.246-101.401 31.396-163.362 31.396v30c66.252 0 128.774-12.149 176.049-34.212 50.912-23.759 78.951-56.712 78.951-92.788s-28.039-69.029-78.951-92.788z" fill="#0050c1"/><path d="m254.5 112c-68.04 0-114.974 13.877-142.367 25.519l11.733 27.609c24.828-10.551 67.645-23.128 130.634-23.128.168 0 .332.003.5.003l9-17.003-9-12.997c-.168 0-.332-.003-.5-.003z" fill="#0081ff"/><path d="m396.867 137.519c-27.325-11.613-74.1-25.447-141.867-25.515v30c62.713.067 105.372 12.602 130.133 23.125z" fill="#0050c1"/></g></svg>